<?xml version="1.0" standalone="no"?><!-- Generator: Gravit.io --><svg xmlns="http://www.w3.org/2000/svg" xmlns:xlink="http://www.w3.org/1999/xlink" style="isolation:isolate" viewBox="0 0 124.596 72.445" width="124.596" height="72.445"><defs><clipPath id="_clipPath_92jrn7QyCu2JmJqCORfTgqGTVbTFVqav"><rect width="124.596" height="72.445"/></clipPath></defs><g clip-path="url(#_clipPath_92jrn7QyCu2JmJqCORfTgqGTVbTFVqav)"><path d="M 3.984 0 L 68.461 0 C 70.66 0 72.445 1.785 72.445 3.984 L 72.445 68.461 C 72.445 70.66 70.66 72.445 68.461 72.445 L 3.984 72.445 C 1.785 72.445 0 70.66 0 68.461 L 0 3.984 C 0 1.785 1.785 0 3.984 0 Z" style="stroke:none;fill:#74C623;stroke-miterlimit:10;"/><path d=" M 45.544 43.854 L 45.564 43.854 L 45.564 43.854 Q 45.604 43.854 45.634 43.944 L 45.634 43.944 L 45.634 43.944 Q 45.664 44.034 45.624 44.054 L 45.624 44.054 L 45.624 44.054 Q 44.604 44.294 43.924 44.294 L 43.924 44.294 L 43.924 44.294 Q 42.544 44.294 41.014 43.384 L 41.014 43.384 L 41.014 43.384 Q 39.484 42.474 38.364 40.854 L 38.364 40.854 L 38.364 40.854 Q 38.224 40.874 37.964 40.874 L 37.964 40.874 L 37.964 40.874 Q 36.104 40.874 34.654 40.004 L 34.654 40.004 L 34.654 40.004 Q 33.204 39.134 32.414 37.644 L 32.414 37.644 L 32.414 37.644 Q 31.624 36.154 31.624 34.394 L 31.624 34.394 L 31.624 34.394 Q 31.624 32.334 32.664 30.864 L 32.664 30.864 L 32.664 30.864 Q 33.704 29.394 35.334 28.654 L 35.334 28.654 L 35.334 28.654 Q 36.964 27.914 38.664 27.914 L 38.664 27.914 L 38.664 27.914 Q 40.564 27.914 42.004 28.804 L 42.004 28.804 L 42.004 28.804 Q 43.444 29.694 44.214 31.154 L 44.214 31.154 L 44.214 31.154 Q 44.984 32.614 44.984 34.254 L 44.984 34.254 L 44.984 34.254 Q 44.984 35.734 44.334 37.044 L 44.334 37.044 L 44.334 37.044 Q 43.684 38.354 42.544 39.274 L 42.544 39.274 L 42.544 39.274 Q 41.404 40.194 39.964 40.594 L 39.964 40.594 L 39.964 40.594 Q 40.804 42.034 42.194 42.974 L 42.194 42.974 L 42.194 42.974 Q 43.584 43.914 44.824 43.914 L 44.824 43.914 L 44.824 43.914 Q 45.284 43.914 45.544 43.854 L 45.544 43.854 L 45.544 43.854 Z  M 33.144 33.694 L 33.144 33.694 Q 33.144 35.574 33.844 37.124 L 33.844 37.124 L 33.844 37.124 Q 34.544 38.674 35.804 39.564 L 35.804 39.564 L 35.804 39.564 Q 37.064 40.454 38.664 40.454 L 38.664 40.454 L 38.664 40.454 Q 40.024 40.454 41.114 39.794 L 41.114 39.794 L 41.114 39.794 Q 42.204 39.134 42.834 37.854 L 42.834 37.854 L 42.834 37.854 Q 43.464 36.574 43.464 34.814 L 43.464 34.814 L 43.464 34.814 Q 43.464 32.934 42.764 31.474 L 42.764 31.474 L 42.764 31.474 Q 42.064 30.014 40.794 29.194 L 40.794 29.194 L 40.794 29.194 Q 39.524 28.374 37.824 28.374 L 37.824 28.374 L 37.824 28.374 Q 35.624 28.374 34.384 29.794 L 34.384 29.794 L 34.384 29.794 Q 33.144 31.214 33.144 33.694 L 33.144 33.694 L 33.144 33.694 Z  M 55.664 39.494 L 55.704 39.494 L 55.704 39.494 Q 55.784 39.494 55.814 39.584 L 55.814 39.584 L 55.814 39.584 Q 55.844 39.674 55.764 39.714 L 55.764 39.714 L 53.424 40.814 L 53.344 40.834 L 53.344 40.834 Q 53.144 40.834 52.964 40.374 L 52.964 40.374 L 52.964 40.374 Q 52.784 39.914 52.784 39.174 L 52.784 39.174 L 52.784 39.094 L 52.784 39.094 Q 52.004 39.974 51.224 40.384 L 51.224 40.384 L 51.224 40.384 Q 50.444 40.794 49.604 40.794 L 49.604 40.794 L 49.604 40.794 Q 48.604 40.794 48.044 40.164 L 48.044 40.164 L 48.044 40.164 Q 47.484 39.534 47.484 38.334 L 47.484 38.334 L 47.484 35.274 L 47.484 35.274 Q 47.484 34.494 47.344 34.144 L 47.344 34.144 L 47.344 34.144 Q 47.204 33.794 46.884 33.794 L 46.884 33.794 L 46.884 33.794 Q 46.604 33.794 46.204 33.994 L 46.204 33.994 L 46.184 33.994 L 46.184 33.994 Q 46.104 33.994 46.064 33.884 L 46.064 33.884 L 46.064 33.884 Q 46.024 33.774 46.104 33.754 L 46.104 33.754 L 48.324 32.754 L 48.404 32.734 L 48.404 32.734 Q 48.464 32.734 48.534 32.784 L 48.534 32.784 L 48.534 32.784 Q 48.604 32.834 48.604 32.894 L 48.604 32.894 L 48.604 37.674 L 48.604 37.674 Q 48.604 39.994 50.284 39.994 L 50.284 39.994 L 50.284 39.994 Q 50.924 39.994 51.584 39.664 L 51.584 39.664 L 51.584 39.664 Q 52.244 39.334 52.784 38.754 L 52.784 38.754 L 52.784 35.274 L 52.784 35.274 Q 52.784 34.474 52.654 34.134 L 52.654 34.134 L 52.654 34.134 Q 52.524 33.794 52.184 33.794 L 52.184 33.794 L 52.184 33.794 Q 51.904 33.794 51.504 33.994 L 51.504 33.994 L 51.484 33.994 L 51.484 33.994 Q 51.404 33.994 51.374 33.884 L 51.374 33.884 L 51.374 33.884 Q 51.344 33.774 51.424 33.754 L 51.424 33.754 L 53.644 32.754 L 53.704 32.734 L 53.704 32.734 Q 53.764 32.734 53.834 32.784 L 53.834 32.784 L 53.834 32.784 Q 53.904 32.834 53.904 32.894 L 53.904 32.894 L 53.904 38.494 L 53.904 38.494 Q 53.904 39.174 54.064 39.474 L 54.064 39.474 L 54.064 39.474 Q 54.224 39.774 54.604 39.774 L 54.604 39.774 L 54.604 39.774 Q 54.944 39.774 55.664 39.494 L 55.664 39.494 L 55.664 39.494 Z  M 58.564 30.394 L 58.564 30.394 Q 58.144 30.394 57.914 30.174 L 57.914 30.174 L 57.914 30.174 Q 57.684 29.954 57.684 29.554 L 57.684 29.554 L 57.684 29.554 Q 57.684 29.154 57.914 28.934 L 57.914 28.934 L 57.914 28.934 Q 58.144 28.714 58.564 28.714 L 58.564 28.714 L 58.564 28.714 Q 58.964 28.714 59.184 28.934 L 59.184 28.934 L 59.184 28.934 Q 59.404 29.154 59.404 29.554 L 59.404 29.554 L 59.404 29.554 Q 59.404 29.954 59.184 30.174 L 59.184 30.174 L 59.184 30.174 Q 58.964 30.394 58.564 30.394 L 58.564 30.394 L 58.564 30.394 Z  M 56.884 40.634 L 56.884 40.634 Q 56.844 40.634 56.844 40.514 L 56.844 40.514 L 56.844 40.514 Q 56.844 40.394 56.884 40.394 L 56.884 40.394 L 56.884 40.394 Q 57.424 40.394 57.694 40.284 L 57.694 40.284 L 57.694 40.284 Q 57.964 40.174 58.064 39.884 L 58.064 39.884 L 58.064 39.884 Q 58.164 39.594 58.164 39.014 L 58.164 39.014 L 58.164 35.274 L 58.164 35.274 Q 58.164 34.554 58.014 34.234 L 58.014 34.234 L 58.014 34.234 Q 57.864 33.914 57.504 33.914 L 57.504 33.914 L 57.504 33.914 Q 57.144 33.914 56.604 34.194 L 56.604 34.194 L 56.584 34.194 L 56.584 34.194 Q 56.504 34.194 56.464 34.094 L 56.464 34.094 L 56.464 34.094 Q 56.424 33.994 56.484 33.954 L 56.484 33.954 L 59.084 32.754 L 59.164 32.734 L 59.164 32.734 Q 59.204 32.734 59.264 32.784 L 59.264 32.784 L 59.264 32.784 Q 59.324 32.834 59.324 32.894 L 59.324 32.894 L 59.324 32.894 Q 59.324 33.034 59.304 33.694 L 59.304 33.694 L 59.304 33.694 Q 59.284 34.354 59.284 35.254 L 59.284 35.254 L 59.284 39.014 L 59.284 39.014 Q 59.284 39.614 59.384 39.894 L 59.384 39.894 L 59.384 39.894 Q 59.484 40.174 59.744 40.284 L 59.744 40.284 L 59.744 40.284 Q 60.004 40.394 60.544 40.394 L 60.544 40.394 L 60.544 40.394 Q 60.604 40.394 60.604 40.514 L 60.604 40.514 L 60.604 40.514 Q 60.604 40.634 60.544 40.634 L 60.544 40.634 L 60.544 40.634 Q 60.084 40.634 59.804 40.614 L 59.804 40.614 L 58.724 40.594 L 57.644 40.614 L 57.644 40.614 Q 57.364 40.634 56.884 40.634 L 56.884 40.634 L 56.884 40.634 Z  M 62.124 40.394 L 66.904 33.314 L 66.904 33.314 Q 66.984 33.174 66.804 33.174 L 66.804 33.174 L 66.804 33.174 Q 65.264 33.174 64.404 33.314 L 64.404 33.314 L 64.404 33.314 Q 63.544 33.454 63.064 33.824 L 63.064 33.824 L 63.064 33.824 Q 62.584 34.194 62.344 34.954 L 62.344 34.954 L 62.344 34.954 Q 62.344 34.994 62.264 34.994 L 62.264 34.994 L 62.264 34.994 Q 62.204 34.994 62.154 34.964 L 62.154 34.964 L 62.154 34.964 Q 62.104 34.934 62.124 34.914 L 62.124 34.914 L 62.804 32.334 L 62.804 32.334 Q 62.824 32.294 62.934 32.304 L 62.934 32.304 L 62.934 32.304 Q 63.044 32.314 63.024 32.354 L 63.024 32.354 L 63.024 32.354 Q 63.004 32.414 63.004 32.514 L 63.004 32.514 L 63.004 32.514 Q 63.004 32.754 63.224 32.834 L 63.224 32.834 L 63.224 32.834 Q 63.444 32.914 63.984 32.914 L 63.984 32.914 L 68.224 32.914 L 68.224 32.914 Q 68.304 32.914 68.364 32.994 L 68.364 32.994 L 68.364 32.994 Q 68.424 33.074 68.384 33.154 L 68.384 33.154 L 63.664 40.194 L 63.664 40.194 Q 63.584 40.334 63.764 40.334 L 63.764 40.334 L 63.764 40.334 Q 65.724 40.334 66.554 40.214 L 66.554 40.214 L 66.554 40.214 Q 67.384 40.094 67.764 39.704 L 67.764 39.704 L 67.764 39.704 Q 68.144 39.314 68.444 38.354 L 68.444 38.354 L 68.444 38.354 Q 68.464 38.314 68.564 38.314 L 68.564 38.314 L 68.564 38.314 Q 68.664 38.314 68.664 38.354 L 68.664 38.354 L 68.624 40.414 L 68.624 40.414 Q 68.624 40.494 68.574 40.564 L 68.574 40.564 L 68.574 40.564 Q 68.524 40.634 68.444 40.634 L 68.444 40.634 L 62.264 40.634 L 62.264 40.634 Q 62.184 40.634 62.134 40.554 L 62.134 40.554 L 62.134 40.554 Q 62.084 40.474 62.124 40.394 L 62.124 40.394 L 62.124 40.394 Z " fill-rule="evenodd" fill="rgb(255,255,255)"/><path d=" M 77.844 28.494 L 77.844 28.494 Q 76.584 28.494 75.954 29.134 L 75.954 29.134 L 75.954 29.134 Q 75.324 29.774 75.044 31.314 L 75.044 31.314 L 75.044 31.314 Q 75.044 31.354 74.934 31.354 L 74.934 31.354 L 74.934 31.354 Q 74.824 31.354 74.824 31.314 L 74.824 31.314 L 74.824 31.314 Q 74.904 30.594 75.004 29.434 L 75.004 29.434 L 75.004 29.434 Q 75.104 28.274 75.104 27.694 L 75.104 27.694 L 75.104 27.694 Q 75.104 27.594 75.214 27.594 L 75.214 27.594 L 75.214 27.594 Q 75.324 27.594 75.324 27.694 L 75.324 27.694 L 75.324 27.694 Q 75.324 28.134 76.404 28.134 L 76.404 28.134 L 76.404 28.134 Q 78.104 28.194 80.424 28.194 L 80.424 28.194 L 80.424 28.194 Q 81.604 28.194 82.924 28.154 L 82.924 28.154 L 84.284 28.134 L 84.284 28.134 Q 85.004 28.134 85.354 28.034 L 85.354 28.034 L 85.354 28.034 Q 85.704 27.934 85.804 27.634 L 85.804 27.634 L 85.804 27.634 Q 85.824 27.554 85.924 27.554 L 85.924 27.554 L 85.924 27.554 Q 86.024 27.554 86.024 27.634 L 86.024 27.634 L 86.024 27.634 Q 85.964 28.214 85.904 29.394 L 85.904 29.394 L 85.904 29.394 Q 85.844 30.574 85.844 31.314 L 85.844 31.314 L 85.844 31.314 Q 85.844 31.354 85.724 31.354 L 85.724 31.354 L 85.724 31.354 Q 85.604 31.354 85.604 31.314 L 85.604 31.314 L 85.604 31.314 Q 85.544 29.754 84.964 29.124 L 84.964 29.124 L 84.964 29.124 Q 84.384 28.494 83.044 28.494 L 83.044 28.494 L 83.044 28.494 Q 82.144 28.494 81.764 28.574 L 81.764 28.574 L 81.764 28.574 Q 81.384 28.654 81.244 28.914 L 81.244 28.914 L 81.244 28.914 Q 81.104 29.174 81.104 29.794 L 81.104 29.794 L 81.104 39.014 L 81.104 39.014 Q 81.104 39.634 81.244 39.914 L 81.244 39.914 L 81.244 39.914 Q 81.384 40.194 81.784 40.294 L 81.784 40.294 L 81.784 40.294 Q 82.184 40.394 83.044 40.394 L 83.044 40.394 L 83.044 40.394 Q 83.104 40.394 83.104 40.514 L 83.104 40.514 L 83.104 40.514 Q 83.104 40.634 83.044 40.634 L 83.044 40.634 L 83.044 40.634 Q 82.384 40.634 81.984 40.614 L 81.984 40.614 L 80.424 40.594 L 78.924 40.614 L 78.924 40.614 Q 78.524 40.634 77.824 40.634 L 77.824 40.634 L 77.824 40.634 Q 77.784 40.634 77.784 40.514 L 77.784 40.514 L 77.784 40.514 Q 77.784 40.394 77.824 40.394 L 77.824 40.394 L 77.824 40.394 Q 78.684 40.394 79.084 40.294 L 79.084 40.294 L 79.084 40.294 Q 79.484 40.194 79.634 39.904 L 79.634 39.904 L 79.634 39.904 Q 79.784 39.614 79.784 39.014 L 79.784 39.014 L 79.784 29.754 L 79.784 29.754 Q 79.784 29.134 79.644 28.884 L 79.644 28.884 L 79.644 28.884 Q 79.504 28.634 79.124 28.564 L 79.124 28.564 L 79.124 28.564 Q 78.744 28.494 77.844 28.494 L 77.844 28.494 L 77.844 28.494 Z  M 89.484 30.394 L 89.484 30.394 Q 89.064 30.394 88.834 30.174 L 88.834 30.174 L 88.834 30.174 Q 88.604 29.954 88.604 29.554 L 88.604 29.554 L 88.604 29.554 Q 88.604 29.154 88.834 28.934 L 88.834 28.934 L 88.834 28.934 Q 89.064 28.714 89.484 28.714 L 89.484 28.714 L 89.484 28.714 Q 89.884 28.714 90.104 28.934 L 90.104 28.934 L 90.104 28.934 Q 90.324 29.154 90.324 29.554 L 90.324 29.554 L 90.324 29.554 Q 90.324 29.954 90.104 30.174 L 90.104 30.174 L 90.104 30.174 Q 89.884 30.394 89.484 30.394 L 89.484 30.394 L 89.484 30.394 Z  M 87.804 40.634 L 87.804 40.634 Q 87.764 40.634 87.764 40.514 L 87.764 40.514 L 87.764 40.514 Q 87.764 40.394 87.804 40.394 L 87.804 40.394 L 87.804 40.394 Q 88.344 40.394 88.614 40.284 L 88.614 40.284 L 88.614 40.284 Q 88.884 40.174 88.984 39.884 L 88.984 39.884 L 88.984 39.884 Q 89.084 39.594 89.084 39.014 L 89.084 39.014 L 89.084 35.274 L 89.084 35.274 Q 89.084 34.554 88.934 34.234 L 88.934 34.234 L 88.934 34.234 Q 88.784 33.914 88.424 33.914 L 88.424 33.914 L 88.424 33.914 Q 88.064 33.914 87.524 34.194 L 87.524 34.194 L 87.504 34.194 L 87.504 34.194 Q 87.424 34.194 87.384 34.094 L 87.384 34.094 L 87.384 34.094 Q 87.344 33.994 87.404 33.954 L 87.404 33.954 L 90.004 32.754 L 90.084 32.734 L 90.084 32.734 Q 90.124 32.734 90.184 32.784 L 90.184 32.784 L 90.184 32.784 Q 90.244 32.834 90.244 32.894 L 90.244 32.894 L 90.244 32.894 Q 90.244 33.034 90.224 33.694 L 90.224 33.694 L 90.224 33.694 Q 90.204 34.354 90.204 35.254 L 90.204 35.254 L 90.204 39.014 L 90.204 39.014 Q 90.204 39.614 90.304 39.894 L 90.304 39.894 L 90.304 39.894 Q 90.404 40.174 90.664 40.284 L 90.664 40.284 L 90.664 40.284 Q 90.924 40.394 91.464 40.394 L 91.464 40.394 L 91.464 40.394 Q 91.524 40.394 91.524 40.514 L 91.524 40.514 L 91.524 40.514 Q 91.524 40.634 91.464 40.634 L 91.464 40.634 L 91.464 40.634 Q 91.004 40.634 90.724 40.614 L 90.724 40.614 L 89.644 40.594 L 88.564 40.614 L 88.564 40.614 Q 88.284 40.634 87.804 40.634 L 87.804 40.634 L 87.804 40.634 Z  M 107.044 40.394 L 107.044 40.394 Q 107.124 40.394 107.124 40.514 L 107.124 40.514 L 107.124 40.514 Q 107.124 40.634 107.044 40.634 L 107.044 40.634 L 107.044 40.634 Q 106.584 40.634 106.304 40.614 L 106.304 40.614 L 105.224 40.594 L 104.144 40.614 L 104.144 40.614 Q 103.864 40.634 103.404 40.634 L 103.404 40.634 L 103.404 40.634 Q 103.344 40.634 103.344 40.514 L 103.344 40.514 L 103.344 40.514 Q 103.344 40.394 103.404 40.394 L 103.404 40.394 L 103.404 40.394 Q 103.944 40.394 104.204 40.284 L 104.204 40.284 L 104.204 40.284 Q 104.464 40.174 104.564 39.884 L 104.564 39.884 L 104.564 39.884 Q 104.664 39.594 104.664 39.014 L 104.664 39.014 L 104.664 35.834 L 104.664 35.834 Q 104.664 34.654 104.244 34.084 L 104.244 34.084 L 104.244 34.084 Q 103.824 33.514 102.944 33.514 L 102.944 33.514 L 102.944 33.514 Q 102.344 33.514 101.734 33.844 L 101.734 33.844 L 101.734 33.844 Q 101.124 34.174 100.604 34.774 L 100.604 34.774 L 100.604 34.774 Q 100.624 34.874 100.624 35.094 L 100.624 35.094 L 100.624 39.014 L 100.624 39.014 Q 100.624 39.614 100.724 39.894 L 100.724 39.894 L 100.724 39.894 Q 100.824 40.174 101.084 40.284 L 101.084 40.284 L 101.084 40.284 Q 101.344 40.394 101.884 40.394 L 101.884 40.394 L 101.884 40.394 Q 101.944 40.394 101.944 40.514 L 101.944 40.514 L 101.944 40.514 Q 101.944 40.634 101.884 40.634 L 101.884 40.634 L 101.884 40.634 Q 101.424 40.634 101.144 40.614 L 101.144 40.614 L 100.064 40.594 L 98.964 40.614 L 98.964 40.614 Q 98.704 40.634 98.244 40.634 L 98.244 40.634 L 98.244 40.634 Q 98.184 40.634 98.184 40.514 L 98.184 40.514 L 98.184 40.514 Q 98.184 40.394 98.244 40.394 L 98.244 40.394 L 98.244 40.394 Q 98.784 40.394 99.044 40.284 L 99.044 40.284 L 99.044 40.284 Q 99.304 40.174 99.394 39.894 L 99.394 39.894 L 99.394 39.894 Q 99.484 39.614 99.484 39.014 L 99.484 39.014 L 99.484 35.834 L 99.484 35.834 Q 99.484 34.654 99.064 34.084 L 99.064 34.084 L 99.064 34.084 Q 98.644 33.514 97.784 33.514 L 97.784 33.514 L 97.784 33.514 Q 97.184 33.514 96.584 33.834 L 96.584 33.834 L 96.584 33.834 Q 95.984 34.154 95.484 34.734 L 95.484 34.734 L 95.484 39.014 L 95.484 39.014 Q 95.484 39.614 95.574 39.894 L 95.574 39.894 L 95.574 39.894 Q 95.664 40.174 95.924 40.284 L 95.924 40.284 L 95.924 40.284 Q 96.184 40.394 96.724 40.394 L 96.724 40.394 L 96.724 40.394 Q 96.784 40.394 96.784 40.514 L 96.784 40.514 L 96.784 40.514 Q 96.784 40.634 96.724 40.634 L 96.724 40.634 L 96.724 40.634 Q 96.264 40.634 96.004 40.614 L 96.004 40.614 L 94.924 40.594 L 93.824 40.614 L 93.824 40.614 Q 93.564 40.634 93.104 40.634 L 93.104 40.634 L 93.104 40.634 Q 93.044 40.634 93.044 40.514 L 93.044 40.514 L 93.044 40.514 Q 93.044 40.394 93.104 40.394 L 93.104 40.394 L 93.104 40.394 Q 93.644 40.394 93.904 40.284 L 93.904 40.284 L 93.904 40.284 Q 94.164 40.174 94.254 39.894 L 94.254 39.894 L 94.254 39.894 Q 94.344 39.614 94.344 39.014 L 94.344 39.014 L 94.344 35.054 L 94.344 35.054 Q 94.344 34.374 94.184 34.074 L 94.184 34.074 L 94.184 34.074 Q 94.024 33.774 93.644 33.774 L 93.644 33.774 L 93.644 33.774 Q 93.324 33.774 92.564 34.074 L 92.564 34.074 L 92.524 34.074 L 92.524 34.074 Q 92.444 34.074 92.414 33.984 L 92.414 33.984 L 92.414 33.984 Q 92.384 33.894 92.464 33.854 L 92.464 33.854 L 94.784 32.754 L 94.904 32.734 L 94.904 32.734 Q 95.084 32.734 95.284 33.194 L 95.284 33.194 L 95.284 33.194 Q 95.484 33.654 95.484 34.374 L 95.484 34.374 L 95.484 34.394 L 95.484 34.394 Q 96.204 33.514 96.924 33.114 L 96.924 33.114 L 96.924 33.114 Q 97.644 32.714 98.424 32.714 L 98.424 32.714 L 98.424 32.714 Q 99.324 32.714 99.884 33.154 L 99.884 33.154 L 99.884 33.154 Q 100.444 33.594 100.584 34.474 L 100.584 34.474 L 100.584 34.474 Q 101.324 33.574 102.064 33.144 L 102.064 33.144 L 102.064 33.144 Q 102.804 32.714 103.604 32.714 L 103.604 32.714 L 103.604 32.714 Q 104.664 32.714 105.234 33.324 L 105.234 33.324 L 105.234 33.324 Q 105.804 33.934 105.804 35.134 L 105.804 35.134 L 105.804 39.014 L 105.804 39.014 Q 105.804 39.614 105.894 39.894 L 105.894 39.894 L 105.894 39.894 Q 105.984 40.174 106.244 40.284 L 106.244 40.284 L 106.244 40.284 Q 106.504 40.394 107.044 40.394 L 107.044 40.394 L 107.044 40.394 Z  M 114.624 39.514 L 114.644 39.514 L 114.644 39.514 Q 114.704 39.514 114.754 39.584 L 114.754 39.584 L 114.754 39.584 Q 114.804 39.654 114.764 39.714 L 114.764 39.714 L 114.764 39.714 Q 113.444 40.874 111.844 40.874 L 111.844 40.874 L 111.844 40.874 Q 110.684 40.874 109.864 40.334 L 109.864 40.334 L 109.864 40.334 Q 109.044 39.794 108.614 38.914 L 108.614 38.914 L 108.614 38.914 Q 108.184 38.034 108.184 37.034 L 108.184 37.034 L 108.184 37.034 Q 108.184 35.854 108.744 34.864 L 108.744 34.864 L 108.744 34.864 Q 109.304 33.874 110.274 33.304 L 110.274 33.304 L 110.274 33.304 Q 111.244 32.734 112.404 32.734 L 112.404 32.734 L 112.404 32.734 Q 113.524 32.734 114.124 33.334 L 114.124 33.334 L 114.124 33.334 Q 114.724 33.934 114.724 35.014 L 114.724 35.014 L 114.724 35.014 Q 114.724 35.294 114.674 35.414 L 114.674 35.414 L 114.674 35.414 Q 114.624 35.534 114.504 35.534 L 114.504 35.534 L 109.544 35.554 L 109.544 35.554 Q 109.504 35.994 109.504 36.274 L 109.504 36.274 L 109.504 36.274 Q 109.504 38.014 110.324 39.094 L 110.324 39.094 L 110.324 39.094 Q 111.144 40.174 112.624 40.174 L 112.624 40.174 L 112.624 40.174 Q 113.224 40.174 113.654 40.014 L 113.654 40.014 L 113.654 40.014 Q 114.084 39.854 114.624 39.514 L 114.624 39.514 L 114.624 39.514 Z  M 111.744 33.134 L 111.744 33.134 Q 110.884 33.134 110.324 33.704 L 110.324 33.704 L 110.324 33.704 Q 109.764 34.274 109.584 35.294 L 109.584 35.294 L 113.384 35.214 L 113.384 35.214 Q 113.384 34.194 112.944 33.664 L 112.944 33.664 L 112.944 33.664 Q 112.504 33.134 111.744 33.134 L 111.744 33.134 L 111.744 33.134 Z " fill-rule="evenodd" fill="rgb(0,0,0)"/></g></svg>